:SAMPLES-PER-SECOND 30
:FULLY-SPECIFIED
:DEGREES
50
root  -9.37674 40.1577 -0.664875 -177.061 -81.4028 -173.315
RightUpLeg  -19.7885 -2.67635 -0.256158
RightLeg  13.3863 -15.3609 -1.96272
RightFoot  -1.87264 -0.288068 3.32222
RightToes  -3.13006e-008 1.75238e-005 3.56266e-009
Spine  24.4835 1.76534 0.745548
Spine1  6.56658 1.99722 -0.290284
HEad  -15.7378 0.0030044 -3.12255
LeftShoulder1  2.46155 -5.94542 -19.5737
LeftArm  -37.0073 -33.9569 -52.4702
LeftForeArm  68.0646 -40.4215 -5.57967
LeftHand  -0.582584 -2.92203 8.38375
RightShoulder  3.24675 7.90807 22.2095
RightArm  -18.7991 34.9674 41.1893
RightForeArm  39.041 39.833 6.87457
RightHand  -1.07255 5.99512 -11.2211
LeftUpLeg  -21.9303 4.92903 6.86416
LeftLeg  6.7739 12.8207 -0.817486
LeftFoot  7.23021 0.503642 -3.34913
LeftToes  4.78512e-008 1.47396e-008 1.32451e-009
51
root  -9.43425 40.2128 -0.593083 -176.726 -81.255 -173.919
RightUpLeg  -19.0282 -2.33651 -0.58989
RightLeg  12.6115 -15.6498 -1.7349
RightFoot  -1.80538 -0.31564 3.63636
RightToes  -3.13006e-008 1.75238e-005 3.56266e-009
Spine  23.6932 1.5879 0.309951
Spine1  7.40785 1.68978 -0.0970167
HEad  -15.0502 0.738279 -3.33504
LeftShoulder1  2.4579 -5.81534 -19.9238
LeftArm  -40.1559 -31.7813 -51.1289
LeftForeArm  50.9273 -41.4697 -6.66984
LeftHand  -0.507943 -2.36605 7.7935
RightShoulder  3.14392 7.50114 22.3372
RightArm  -22.4329 34.0574 40.1273
RightForeArm  31.9326 41.519 7.8256
RightHand  -1.04739 6.01174 -10.9425
LeftUpLeg  -21.1502 4.42195 6.84495
LeftLeg  6.02944 13.4839 -0.958708
LeftFoot  7.38422 0.491119 -3.24531
LeftToes  4.78512e-008 1.47396e-008 1.32451e-009
52
root  -9.56199 40.2719 -0.54728 -177.026 -81.2441 -174.206
RightUpLeg  -17.8388 -2.09634 -0.864695
RightLeg  11.9736 -15.8894 -1.57623
RightFoot  -1.90216 -0.36869 4.3044
RightToes  -3.13006e-008 1.75238e-005 3.56266e-009
Spine  22.9313 1.35841 -0.371681
Spine1  7.99354 1.17674 0.464466
HEad  -14.036 1.63992 -3.806
LeftShoulder1  2.48749 -5.67366 -20.7018
LeftArm  -40.0568 -28.2127 -49.558
LeftForeArm  39.7484 -44.2462 -8.19063
LeftHand  -0.404702 -1.84216 6.69212
RightShoulder  3.1991 7.52779 22.7916
RightArm  -24.4139 32.8494 39.3864
RightForeArm  25.9248 43.8345 8.9732
RightHand  -0.971176 5.73484 -10.414
LeftUpLeg  -19.9666 3.90628 6.78983
LeftLeg  5.3448 13.8064 -0.94171
LeftFoot  7.42828 0.480244 -3.17933
LeftToes  4.78512e-008 1.47396e-008 1.32451e-009
53
root  -9.74201 40.3268 -0.522581 179.588 -81.6264 -171.409
RightUpLeg  -16.2869 -1.68445 -0.770082
RightLeg  10.9215 -16.8099 -1.26926
RightFoot  -1.76992 -0.394301 4.56209
RightToes  -3.13006e-008 1.75238e-005 3.56266e-009
Spine  21.9401 1.02991 -0.641373
Spine1  8.17442 0.653719 1.0054
HEad  -12.4819 2.2233 -3.68284
LeftShoulder1  2.50627 -5.68183 -20.8948
LeftArm  -37.6263 -23.3263 -49.0121
LeftForeArm  37.7675 -47.7245 -9.55859
LeftHand  -0.431155 -2.26045 6.74339
RightShoulder  3.33417 7.79601 23.3332
RightArm  -25.0886 31.5352 38.9964
RightForeArm  25.5282 45.052 9.43462
RightHand  -1.09081 6.23277 -11.1881
LeftUpLeg  -19.1443 3.77032 6.93318
LeftLeg  5.40174 13.3245 -0.628796
LeftFoot  7.25392 0.480784 -3.20702
LeftToes  4.78512e-008 1.47396e-008 1.32451e-009
54
root  -9.98441 40.3755 -0.502227 176.537 -82.043 -169.006
RightUpLeg  -14.6989 -1.47371 -0.699567
RightLeg  10.1124 -17.4323 -1.03432
RightFoot  -1.77947 -0.40141 4.65149
RightToes  -3.13006e-008 1.75238e-005 3.56266e-009
Spine  20.4836 0.906817 -0.579903
Spine1  8.56618 0.487291 1.27261
HEad  -10.6503 2.32601 -3.30689
LeftShoulder1  2.57836 -5.78965 -21.3867
LeftArm  -33.7561 -18.3353 -49.4499
LeftForeArm  37.7134 -51.0087 -10.9157
LeftHand  -0.497032 -2.89909 7.192
RightShoulder  3.35157 7.69371 23.7789
RightArm  -25.5434 30.7112 38.545
RightForeArm  19.5538 45.5565 10.0496
RightHand  -1.07367 6.7333 -10.5855
LeftUpLeg  -18.216 3.79053 7.008
LeftLeg  5.60238 12.6327 -0.446094
LeftFoot  6.8249 0.480741 -3.26692
LeftToes  4.78512e-008 1.47396e-008 1.32451e-009
55
root  -10.2682 40.4227 -0.507153 175.761 -83.0447 -169.337
RightUpLeg  -12.8153 -1.66652 -0.982182
RightLeg  9.93846 -18.0759 -1.23342
RightFoot  -2.16576 -0.395055 4.73485
RightToes  -3.13006e-008 1.75238e-005 3.56266e-009
Spine  19.3837 0.825981 -0.765933
Spine1  8.58322 0.335414 1.44986
HEad  -8.1021 1.82325 -2.53111
LeftShoulder1  2.67021 -5.96532 -21.8683
LeftArm  -29.5032 -13.3391 -50.78
LeftForeArm  35.2923 -53.9844 -12.5315
LeftHand  -0.568582 -3.36302 7.79634
RightShoulder  3.52909 7.97321 24.6393
RightArm  -26.7759 30.083 37.9163
RightForeArm  5.57108 45.6033 11.0656
RightHand  -0.867578 6.55115 -8.71501
LeftUpLeg  -16.7267 3.46119 6.60634
LeftLeg  5.49868 11.9302 -0.426845
LeftFoot  6.48257 0.46541 -3.2193
LeftToes  4.78512e-008 1.47396e-008 1.32451e-009
56
root  -10.58 40.4626 -0.522353 174.29 -83.7069 -168.894
RightUpLeg  -10.9085 -1.38976 -0.962731
RightLeg  9.55276 -18.801 -1.63476
RightFoot  -2.36494 -0.385535 4.70255
RightToes  -3.13006e-008 1.75238e-005 3.56266e-009
Spine  17.9061 0.92502 -0.0776731
Spine1  8.59361 0.769785 0.681779
HEad  -5.11604 0.70917 -1.90828
LeftShoulder1  2.88031 -6.38144 -22.8657
LeftArm  -26.7446 -9.14047 -52.5533
LeftForeArm  34.8502 -56.2174 -13.8016
LeftHand  -0.670086 -3.1421 9.33383
RightShoulder  3.72495 8.2642 25.5877
RightArm  -29.357 29.9798 37.438
RightForeArm  -8.35052 44.8683 11.6994
RightHand  -0.54519 6.11689 -5.84662
LeftUpLeg  -15.2869 3.53478 6.44141
LeftLeg  5.64396 11.0672 -0.480385
LeftFoot  5.85324 0.444539 -3.17632
LeftToes  4.78512e-008 1.47396e-008 1.32451e-009
57
root  -10.8443 40.4943 -0.529602 173.303 -84.3536 -168.832
RightUpLeg  -9.25483 -1.22089 -0.978077
RightLeg  9.2707 -19.3367 -2.01835
RightFoot  -2.5523 -0.386848 4.80413
RightToes  -3.13006e-008 1.75238e-005 3.56266e-009
Spine  16.6368 1.24122 0.590089
Spine1  8.61057 1.36484 0.0806039
HEad  -2.59733 -0.603557 -1.61691
LeftShoulder1  3.11121 -6.64244 -24.4745
LeftArm  -25.3515 -6.74649 -54.4579
LeftForeArm  31.4705 -57.3342 -14.815
LeftHand  -0.770675 -3.14862 10.6993
RightShoulder  3.83306 8.49028 25.905
RightArm  -32.4298 30.7885 37.3529
RightForeArm  -22.5277 42.7971 11.6807
RightHand  -0.407645 5.70692 -4.55295
LeftUpLeg  -14.0055 3.54268 6.2431
LeftLeg  5.73244 10.3651 -0.520333
LeftFoot  5.33093 0.444202 -3.25266
LeftToes  4.78512e-008 1.47396e-008 1.32451e-009
58
root  -11.0702 40.507 -0.536844 173.274 -84.7017 -169.338
RightUpLeg  -8.23567 -1.00996 -0.95063
RightLeg  9.24175 -19.6339 -2.45788
RightFoot  -2.8056 -0.387795 4.93443
RightToes  -3.13006e-008 1.75238e-005 3.56266e-009
Spine  15.3211 1.6496 1.95894
Spine1  8.72388 2.42945 -1.69148
HEad  -1.13267 -1.90239 -1.21213
LeftShoulder1  3.34353 -7.0663 -25.4882
LeftArm  -25.0273 -6.1116 -56.2592
LeftForeArm  24.0219 -57.8572 -15.8941
LeftHand  -0.623745 -2.46472 9.43451
RightShoulder  3.78237 8.41779 25.6624
RightArm  -35.0683 31.7442 37.7293
RightForeArm  -33.2366 40.234 11.2149
RightHand  -0.256817 4.31232 -3.36947
LeftUpLeg  -13.2512 3.73119 6.09453
LeftLeg  6.0256 9.83462 -0.584242
LeftFoot  4.76413 0.44269 -3.33415
LeftToes  4.78512e-008 1.47396e-008 1.32451e-009
59
root  -11.2413 40.498 -0.553602 171.849 -85.1728 -168.066
RightUpLeg  -7.78448 -1.10303 -0.918066
RightLeg  9.41293 -19.9388 -2.56324
RightFoot  -3.1833 -0.369228 4.87077
RightToes  -3.13006e-008 1.75238e-005 3.56266e-009
Spine  14.2231 1.99646 3.25418
Spine1  8.57544 3.28823 -3.13692
HEad  -0.799053 -3.20875 -0.925242
LeftShoulder1  3.56892 -7.5128 -26.2845
LeftArm  -24.8779 -7.32374 -57.1523
LeftForeArm  20.4473 -57.5435 -16.0411
LeftHand  -0.602574 -2.12477 9.48629
RightShoulder  3.68583 8.38206 24.9133
RightArm  -35.5283 32.8306 37.7357
RightForeArm  -34.5242 37.1537 10.2108
RightHand  -0.289927 4.27699 -3.75835
LeftUpLeg  -13.2038 3.97404 6.0217
LeftLeg  6.66122 9.08743 -0.495754
LeftFoot  4.22397 0.445992 -3.45054
LeftToes  4.78512e-008 1.47396e-008 1.32451e-009
60
root  -11.3465 40.4914 -0.562419 169.29 -85.7696 -165.399
RightUpLeg  -7.62584 -1.27789 -0.938907
RightLeg  9.41863 -20.3851 -2.47073
RightFoot  -3.37228 -0.378002 5.09292
RightToes  -3.13006e-008 1.75238e-005 3.56266e-009
Spine  14.0803 2.10939 4.28892
Spine1  7.26972 3.77821 -4.43326
HEad  -0.9273 -3.96611 -0.880794
LeftShoulder1  3.67398 -7.74347 -26.5643
LeftArm  -24.3335 -9.80222 -57.3394
LeftForeArm  23.5425 -56.1514 -14.824
LeftHand  -0.730623 -2.35478 11.1597
RightShoulder  3.64773 8.35859 24.6376
RightArm  -34.4227 33.7049 37.1343
RightForeArm  -29.5661 34.058 9.06555
RightHand  -0.280851 4.52447 -3.56869
LeftUpLeg  -13.4117 4.0488 5.99645
LeftLeg  6.96478 8.35405 -0.490013
LeftFoot  3.9427 0.440065 -3.45829
LeftToes  4.78512e-008 1.47396e-008 1.32451e-009
61
root  -11.4192 40.4873 -0.585322 162.808 -86.5115 -158.91
RightUpLeg  -7.274 -1.31179 -0.773966
RightLeg  9.19997 -21.2187 -2.36653
RightFoot  -3.44435 -0.377816 5.12483
RightToes  -3.13006e-008 1.75238e-005 3.56266e-009
Spine  13.9652 1.95132 4.81677
Spine1  6.74796 3.74051 -4.90817
HEad  -2.10018 -3.8046 -1.26594
LeftShoulder1  3.52037 -7.56427 -25.6708
LeftArm  -23.2473 -13.2654 -58.143
LeftForeArm  23.3224 -54.4208 -13.8202
LeftHand  -0.745623 -2.2987 11.4543
RightShoulder  3.53808 8.21219 24.0611
RightArm  -33.4297 34.9402 37.6094
RightForeArm  -26.9045 31.7836 8.31156
RightHand  -0.264444 4.41764 -3.36089
LeftUpLeg  -13.6103 4.3734 6.10195
LeftLeg  7.27843 7.21277 -0.594583
LeftFoot  3.7306 0.431915 -3.43589
LeftToes  4.78512e-008 1.47396e-008 1.32451e-009
62
root  -11.4715 40.4672 -0.605777 148.475 -87.261 -144.439
RightUpLeg  -7.13411 -1.41805 -0.538089
RightLeg  9.10452 -22.1551 -2.19221
RightFoot  -3.54752 -0.382537 5.22274
RightToes  -3.13006e-008 1.75238e-005 3.56266e-009
Spine  13.7251 1.71168 5.1308
Spine1  6.27174 3.41422 -4.69455
HEad  -2.98809 -3.5938 -2.04744
LeftShoulder1  3.3883 -7.44875 -24.762
LeftArm  -22.2447 -17.3 -59.2778
LeftForeArm  18.2555 -51.9863 -12.9562
LeftHand  -0.702469 -2.14683 11.0071
RightShoulder  3.58186 8.50661 23.6614
RightArm  -33.4886 35.244 37.9454
RightForeArm  -26.4011 30.8064 8.02636
RightHand  -0.442047 5.71175 -4.96745
LeftUpLeg  -14.23 5.07219 6.23683
LeftLeg  7.99724 5.5196 -0.703298
LeftFoot  3.42637 0.415436 -3.36651
LeftToes  4.78512e-008 1.47396e-008 1.32451e-009
63
root  -11.5163 40.4447 -0.634995 118.398 -87.8303 -114.479
RightUpLeg  -6.52188 -1.74608 -0.290582
RightLeg  8.67041 -23.2524 -1.73482
RightFoot  -3.65395 -0.374486 5.11286
RightToes  -3.13006e-008 1.75238e-005 3.56266e-009
Spine  13.4191 1.41628 5.10483
Spine1  6.41158 2.85535 -3.7574
HEad  -3.45784 -3.31265 -3.08338
LeftShoulder1  3.28758 -7.44416 -23.8101
LeftArm  -22.3445 -21.0113 -61.0444
LeftForeArm  17.293 -49.335 -11.7724
LeftHand  -0.662902 -2.03474 10.5487
RightShoulder  3.64902 8.77916 23.5375
RightArm  -34.1057 35.0092 37.8863
RightForeArm  -27.5193 31.188 8.17578
RightHand  -0.415211 4.50214 -5.15194
LeftUpLeg  -14.742 5.65917 6.33658
LeftLeg  8.82847 3.56518 -0.686512
LeftFoot  3.1435 0.419432 -3.451
LeftToes  4.78512e-008 1.47396e-008 1.32451e-009
64
root  -11.5518 40.4168 -0.662764 80.4935 -87.5574 -76.6182
RightUpLeg  -6.02024 -1.83117 0.128683
RightLeg  8.27171 -24.6979 -1.52244
RightFoot  -3.63643 -0.379019 5.19001
RightToes  -3.13006e-008 1.75238e-005 3.56266e-009
Spine  13.1856 1.18309 5.3436
Spine1  6.4488 2.40634 -2.92197
HEad  -3.49881 -3.19612 -3.70358
LeftShoulder1  3.22262 -7.49836 -23.03
LeftArm  -22.428 -24.0112 -62.8154
LeftForeArm  18.7477 -46.8266 -10.5928
LeftHand  -0.744961 -2.32247 11.4176
RightShoulder  3.63514 8.60248 23.8754
RightArm  -33.8374 33.8938 37.1808
RightForeArm  -25.2192 32.6653 8.49064
RightHand  -0.468332 5.25092 -5.4019
LeftUpLeg  -15.45 6.31691 6.43821
LeftLeg  9.79557 1.54321 -0.687683
LeftFoot  2.89197 0.42703 -3.56044
LeftToes  4.78512e-008 1.47396e-008 1.32451e-009
